<svg id="Icon_ionic-ios-book" data-name="Icon ionic-ios-book" xmlns="http://www.w3.org/2000/svg" width="20.956" height="19.351" viewBox="0 0 20.956 19.351">
  <path id="Path_12756" data-name="Path 12756" d="M8.316,4.507c2.727,0,5.04,1.406,5.04,4.133v.806h0V23.754a.1.1,0,0,1-.192.035v-.005a4.739,4.739,0,0,0-4.148-3.553A6.4,6.4,0,0,0,4.324,22.1a.543.543,0,0,1-.333.146H3.765c-.186,0-.383-.136-.383-.307V7.334C3.377,5.717,5.589,4.507,8.316,4.507Z" transform="translate(-3.382 -4.502)" fill="#fff"/>
  <path id="Path_12757" data-name="Path 12757" d="M23.743,4.5c-2.727,0-5.04,1.406-5.04,4.133v.806h0V23.747a.1.1,0,0,0,.192.035v-.005a4.788,4.788,0,0,1,4.148-3.553,6.386,6.386,0,0,1,4.692,1.87.573.573,0,0,0,.333.146h.227c.186,0,.383-.136.383-.307V7.322C28.682,5.71,26.47,4.5,23.743,4.5Z" transform="translate(-7.721 -4.5)" fill="#fff"/>
</svg>
