<svg xmlns="http://www.w3.org/2000/svg" xmlns:xlink="http://www.w3.org/1999/xlink" width="59.87" height="56.497" viewBox="0 0 59.87 56.497">
  <defs>
    <filter id="Icon_awesome-play">
      <feOffset dy="3" input="SourceAlpha"/>
      <feGaussianBlur stdDeviation="0.5" result="blur"/>
      <feFlood flood-opacity="0.161" result="color"/>
      <feComposite operator="out" in="SourceGraphic" in2="blur"/>
      <feComposite operator="in" in="color"/>
      <feComposite operator="in" in2="SourceGraphic"/>
    </filter>
  </defs>
  <g id="Group_9935" data-name="Group 9935" transform="translate(-1006.945 -603.473)">
    <path id="Union_15" data-name="Union 15" d="M-901,56.5h-12.691L-930,27.958-913.691,0h27.252l16.309,27.958L-886.439,56.5Z" transform="translate(1936.944 603.473)" fill="#ff5917"/>
    <g data-type="innerShadowGroup">
      <path id="Icon_awesome-play-2" data-name="Icon awesome-play" d="M16.845,8.523,2.874.263A1.9,1.9,0,0,0,0,1.9V18.417a1.9,1.9,0,0,0,2.874,1.639L16.845,11.8a1.9,1.9,0,0,0,0-3.278Z" transform="translate(1030.859 621.558)" fill="#fff"/>
      <g transform="matrix(1, 0, 0, 1, 1006.94, 603.47)" filter="url(#Icon_awesome-play)">
        <path id="Icon_awesome-play-3" data-name="Icon awesome-play" d="M16.845,8.523,2.874.263A1.9,1.9,0,0,0,0,1.9V18.417a1.9,1.9,0,0,0,2.874,1.639L16.845,11.8a1.9,1.9,0,0,0,0-3.278Z" transform="translate(23.91 18.09)" fill="#fff"/>
      </g>
    </g>
  </g>
</svg>
