<svg xmlns="http://www.w3.org/2000/svg" width="34.318" height="20.25" viewBox="0 0 34.318 20.25">
  <g id="Group_5691" data-name="Group 5691" transform="translate(-136.503 -58.692)">
    <path id="Path_11901" data-name="Path 11901" d="M136.5,71.613a15.486,15.486,0,0,1,5.554-11.254,6.947,6.947,0,0,1,3.607-1.629,4.479,4.479,0,0,1,2.348.322,14.516,14.516,0,0,0,5.424,1.18,13.265,13.265,0,0,0,5.577-1.065,5.387,5.387,0,0,1,4.98.334A11.536,11.536,0,0,1,168.1,63.45a15.9,15.9,0,0,1,2.7,8,9.7,9.7,0,0,1-.663,4.382,4.646,4.646,0,0,1-6.509,2.63,9.517,9.517,0,0,1-2.429-1.549A11.08,11.08,0,0,0,148.845,75.1,10.065,10.065,0,0,0,146.2,76.86a8.122,8.122,0,0,1-3.442,1.914,4.484,4.484,0,0,1-5.294-2.4A10.174,10.174,0,0,1,136.5,71.613Zm7.21-5.648c-.432,0-.824-.008-1.216,0a3.273,3.273,0,0,0-.717.067,1.753,1.753,0,0,0,.427,3.447c.49.017.981,0,1.5,0,0,.505,0,.975,0,1.445a1.75,1.75,0,0,0,1.753,1.793,1.781,1.781,0,0,0,1.756-1.868c.008-.446,0-.893,0-1.373.537,0,1.04.02,1.541,0a1.763,1.763,0,0,0,1.681-1.6,1.74,1.74,0,0,0-1.317-1.843,5.309,5.309,0,0,0-1.013-.068c-.29-.01-.58,0-.892,0,0-.484,0-.911,0-1.338a1.835,1.835,0,0,0-.475-1.329,1.665,1.665,0,0,0-1.859-.471,1.711,1.711,0,0,0-1.171,1.626C143.7,64.943,143.713,65.434,143.713,65.965Zm19.911,5.023a1.753,1.753,0,0,0-1.744-1.766,1.782,1.782,0,0,0-1.745,1.743,1.762,1.762,0,0,0,1.721,1.758A1.735,1.735,0,0,0,163.624,70.987Zm-4.977-5a1.734,1.734,0,0,0-1.747,1.752,1.744,1.744,0,1,0,3.487-.027A1.73,1.73,0,0,0,158.647,65.986Zm6.482,0a1.752,1.752,0,0,0-1.756,1.754,1.777,1.777,0,0,0,1.751,1.735,1.734,1.734,0,0,0,1.737-1.763A1.714,1.714,0,0,0,165.129,65.985Zm-1.505-1.5a1.76,1.76,0,0,0-1.74-1.771,1.753,1.753,0,0,0,0,3.506A1.748,1.748,0,0,0,163.624,64.487Z" transform="translate(0 0)" fill="#fff"/>
  </g>
</svg>
