<svg xmlns="http://www.w3.org/2000/svg" width="79.618" height="32.049" viewBox="0 0 79.618 32.049">
  <g id="Group_9944" data-name="Group 9944" transform="translate(-420.126 -8)">
    <g id="Group_9938" data-name="Group 9938" transform="translate(-155.874 -280)">
      <g id="Group_9938-2" data-name="Group 9938" transform="translate(576 288)">
        <path id="Path_29691" data-name="Path 29691" d="M52.129,83.143l-3.453-1.733-.02-.168c1.877-.807,3.756-1.614,5.6-2.249l4.1,1.839c.1,1.725.034,3.5.034,5.37L32.731,96.466c1.218.793,2.44,1.186,3.614,1.961L30.74,100.67l-3.966-1.815V93.477L52.131,83.356Z" transform="translate(-26.764 -73.75)" fill="#fff"/>
        <path id="Path_29692" data-name="Path 29692" d="M77.823,95.048H73.9c-1.1-1.342-2.007-2.832-3.2-4.162a30.187,30.187,0,0,0-2.143,2.8c-1.014,1.4-1,1.412-2.758,1.412h-10.2c-.228-.557-.3-12.818-.08-13.893h7.926a16.665,16.665,0,0,1,.052,2.514c-1.574.152-3.115-.012-4.741.108a16.186,16.186,0,0,0,.014,2.692h3.778a10.932,10.932,0,0,1,.05,2.564c-1.284.148-2.54-.022-3.834.112a29.56,29.56,0,0,0-.032,3.063c1.588.174,3.131-.014,4.675.116.246.791-.022,1.578.228,2.5,1.735-2.322,3.441-4.477,5.03-6.77-1.548-2.406-3.435-4.5-5.028-7.011a24.02,24.02,0,0,0,3.854-.02c1.1,1.328,2.009,2.814,3.2,4.22,1.226-1.286,2-2.842,3.231-4.154h3.94l-5.126,6.909C74.348,90.4,76.175,92.577,77.823,95.048Z" transform="translate(1.758 -71.681)" fill="#fff"/>
        <path id="Path_29693" data-name="Path 29693" d="M48.719,94.885V81.226a.37.37,0,0,1,.355-.16,41.054,41.054,0,0,0,5.43.036,5.714,5.714,0,0,1,2.225.557,6.466,6.466,0,0,1,4.285,6.274,6.535,6.535,0,0,1-1.757,4.833,7.126,7.126,0,0,1-4.305,2.181,42.806,42.806,0,0,1-5.567.15A.862.862,0,0,1,48.719,94.885ZM52.164,92.2c1.5.341,3.932-.16,4.753-1.667a5.109,5.109,0,0,0-.2-5.15,4.779,4.779,0,0,0-4.555-1.406Z" transform="translate(-4.886 -71.686)" fill="#fff"/>
        <path id="Path_29694" data-name="Path 29694" d="M31.474,78.849l10.869,4.968c-1.8.849-3.569,1.43-5.258,2.169l-5.454-2.624v4.807L26.769,90.08V81.028C28.3,80.2,29.932,79.618,31.474,78.849Z" transform="translate(-26.769 -73.894)" fill="#fff"/>
        <path id="Path_29695" data-name="Path 29695" d="M34.895,90.477q2.369-.953,4.737-1.905a.9.9,0,0,1,.761.1q2.046.991,4.1,1.955a1.617,1.617,0,0,0,.98.29v-4.6c1.558-.725,3.157-1.3,4.815-1.971v9.1l-4.649,2.117-10.78-4.895Z" transform="translate(-18.7 -68.424)" fill="#fff"/>
        <path id="Path_29696" data-name="Path 29696" d="M30.685,79.981a3.713,3.713,0,0,1,1.162-.627c2.059-.939,4.122-1.867,6.175-2.816a1.291,1.291,0,0,1,1.174-.052q3.729,1.737,7.463,3.467a1.584,1.584,0,0,1,.228.2c-1.893.739-3.678,1.62-5.637,2.292-.659-.3-1.392-.6-2.091-.967a1.011,1.011,0,0,0-1.016,0c-.689.339-1.4.629-2.127.951Z" transform="translate(-22.865 -76.368)" fill="#fff"/>
        <path id="Path_29697" data-name="Path 29697" d="M30.725,91.689q2.435-.982,4.871-1.963a.987.987,0,0,1,.841.058c.238.118.467.254.711.355,1.518.623,1.52.621,3.059.024.559-.218,1.112-.447,1.667-.671.222.092.423.172.619.26l4.341,1.939c-.068.312-.312.314-.5.4-2.362,1.024-4.727,2.045-7.079,3.091a1.418,1.418,0,0,1-1.244.022q-3.553-1.6-7.109-3.177C30.809,91.98,30.745,91.908,30.725,91.689Z" transform="translate(-22.825 -63.283)" fill="#fff"/>
      </g>
    </g>
  </g>
</svg>
